<svg xmlns="http://www.w3.org/2000/svg" data-name="Layer 1" viewBox="0 0 93 116.25" x="0px" y="0px"><defs><style>.cls-1{fill-rule:evenodd;}</style></defs><title>a</title><path class="cls-1" d="M60.917,21.1a1.461,1.461,0,1,1-1.46,1.462,1.463,1.463,0,0,1,1.46-1.462Zm2.475,10.293a2.583,2.583,0,1,1-2.583,2.584,2.586,2.586,0,0,1,2.583-2.584Zm-1.016,14a1.46,1.46,0,1,1-1.459-1.459,1.461,1.461,0,0,1,1.459,1.459ZM45.884,40.336a6.451,6.451,0,0,1,0-12.728V40.336Zm12.4-15.376L56.51,28.037H47.994v-1.57a1.055,1.055,0,0,0-1.055-1.055,8.56,8.56,0,0,0,0,17.12,1.055,1.055,0,0,0,1.055-1.055V39.908H56.51l1.776,3.077a3.564,3.564,0,1,0,2.631-1.165,3.5,3.5,0,0,0-.812.1l-2.073-3.59a1.052,1.052,0,0,0-.913-.527H47.994V35.028H58.82a4.693,4.693,0,1,0,0-2.11H47.994V30.146h9.125a1.056,1.056,0,0,0,.913-.527l2.073-3.59a3.617,3.617,0,0,0,.812.1,3.583,3.583,0,1,0-2.631-1.166ZM27.025,31.03v5.883a.163.163,0,0,0,.137.17l3.492.7a1.055,1.055,0,0,1,.8.737A16.09,16.09,0,0,0,32.775,41.7a1.053,1.053,0,0,1-.047,1.089l-1.973,2.97a.16.16,0,0,0,.022.215l4.161,4.162a.163.163,0,0,0,.216.02l2.97-1.973a1.061,1.061,0,0,1,1.089-.047,15.961,15.961,0,0,0,3.175,1.317,1.056,1.056,0,0,1,.736.8l.7,3.492a.163.163,0,0,0,.169.138h1.887v-8.72a11.245,11.245,0,0,1,0-22.39V14.059H44a.162.162,0,0,0-.169.137l-.7,3.493a1.053,1.053,0,0,1-.736.8,15.971,15.971,0,0,0-3.175,1.317,1.049,1.049,0,0,1-1.089-.047l-2.97-1.972a.161.161,0,0,0-.216.021l-4.161,4.16a.163.163,0,0,0-.022.217l1.973,2.968a1.057,1.057,0,0,1,.047,1.091,16.012,16.012,0,0,0-1.317,3.174,1.058,1.058,0,0,1-.8.739l-3.492.7a.161.161,0,0,0-.137.168Zm27.745-15.1a1.459,1.459,0,1,1-1.459,1.459,1.461,1.461,0,0,1,1.459-1.459Zm0,33.168a1.46,1.46,0,1,1-1.459,1.461A1.463,1.463,0,0,1,54.77,49.1ZM26.745,39.152l2.881.58a18.318,18.318,0,0,0,1,2.41L29,44.59a2.257,2.257,0,0,0,.286,2.874l4.161,4.162a2.262,2.262,0,0,0,2.876.287l2.449-1.628a18.391,18.391,0,0,0,2.409,1l.581,2.882A2.26,2.26,0,0,0,44,56h2.942a1.055,1.055,0,0,0,1.055-1.056V51.613h3.367a3.57,3.57,0,1,0,0-2.11H47.994V44.161a1.053,1.053,0,0,0-1.055-1.054,9.135,9.135,0,0,1,0-18.27,1.054,1.054,0,0,0,1.055-1.054V18.442h3.367a3.568,3.568,0,1,0,0-2.109H47.994V13a1.054,1.054,0,0,0-1.055-1.055H44a2.259,2.259,0,0,0-2.236,1.83L41.18,16.66a18.267,18.267,0,0,0-2.409,1l-2.449-1.627a2.258,2.258,0,0,0-2.876.288L29.285,20.48A2.259,2.259,0,0,0,29,23.355L30.625,25.8a18.193,18.193,0,0,0-1,2.409l-2.881.581a2.259,2.259,0,0,0-1.83,2.236v5.883a2.263,2.263,0,0,0,1.83,2.239ZM51.572,66.823a1.054,1.054,0,0,1-1.054,1.055H42.483a1.055,1.055,0,1,1,0-2.11h8.035a1.055,1.055,0,0,1,1.054,1.055Zm34.443,5.031a3.381,3.381,0,0,0,3.376-3.377V61.794H3.61v6.683a3.381,3.381,0,0,0,3.375,3.377ZM56.435,84.74H36.566a7.748,7.748,0,0,0,2.454-5.658V73.963H53.98v5.119a7.749,7.749,0,0,0,2.455,5.658ZM6.985,8.259A3.379,3.379,0,0,0,3.61,11.635V59.684H89.391V11.635a3.379,3.379,0,0,0-3.376-3.376ZM86.015,6.15H6.985A5.492,5.492,0,0,0,1.5,11.635V68.477a5.492,5.492,0,0,0,5.485,5.486H36.911v5.119a5.664,5.664,0,0,1-5.659,5.658H27.589a1.055,1.055,0,0,0,0,2.11H65.412a1.055,1.055,0,0,0,0-2.11H61.749a5.664,5.664,0,0,1-5.659-5.658V73.963H86.015A5.491,5.491,0,0,0,91.5,68.477V11.635A5.491,5.491,0,0,0,86.015,6.15Z"/><text x="0" y="108" fill="#000000" font-size="5px" font-weight="bold" font-family="'Helvetica Neue', Helvetica, Arial-Unicode, Arial, Sans-serif">Created by khoirunnisa</text><text x="0" y="113" fill="#000000" font-size="5px" font-weight="bold" font-family="'Helvetica Neue', Helvetica, Arial-Unicode, Arial, Sans-serif">from the Noun Project</text></svg>